<?xml version="1.0" encoding="UTF-8" standalone="no"?>
<!-- Created with Inkscape (http://www.inkscape.org/) -->

<svg
   xmlns:dc="http://purl.org/dc/elements/1.1/"
   xmlns:cc="http://creativecommons.org/ns#"
   xmlns:rdf="http://www.w3.org/1999/02/22-rdf-syntax-ns#"
   xmlns:svg="http://www.w3.org/2000/svg"
   xmlns="http://www.w3.org/2000/svg"
   xmlns:sodipodi="http://sodipodi.sourceforge.net/DTD/sodipodi-0.dtd"
   xmlns:inkscape="http://www.inkscape.org/namespaces/inkscape"
   width="32px"
   height="32px"
   id="svg2985"
   version="1.1"
   inkscape:version="0.48.5 r10040"
   sodipodi:docname="Asteroid.svg"
   inkscape:export-filename="/home/mike/dev/ts/minild-74-jam/assets/img/Asteroid.png"
   inkscape:export-xdpi="90"
   inkscape:export-ydpi="90">
  <defs
     id="defs2987" />
  <sodipodi:namedview
     id="base"
     pagecolor="#ffffff"
     bordercolor="#666666"
     borderopacity="1.0"
     inkscape:pageopacity="0.0"
     inkscape:pageshadow="2"
     inkscape:zoom="11.197802"
     inkscape:cx="0.23797813"
     inkscape:cy="16"
     inkscape:current-layer="layer1"
     showgrid="true"
     inkscape:grid-bbox="true"
     inkscape:document-units="px"
     inkscape:window-width="1918"
     inkscape:window-height="1078"
     inkscape:window-x="0"
     inkscape:window-y="0"
     inkscape:window-maximized="0" />
  <metadata
     id="metadata2990">
    <rdf:RDF>
      <cc:Work
         rdf:about="">
        <dc:format>image/svg+xml</dc:format>
        <dc:type
           rdf:resource="http://purl.org/dc/dcmitype/StillImage" />
        <dc:title></dc:title>
      </cc:Work>
    </rdf:RDF>
  </metadata>
  <g
     id="layer1"
     inkscape:label="Layer 1"
     inkscape:groupmode="layer">
    <path
       style="fill:#4d5323;fill-opacity:1;stroke:#000000;stroke-width:1.09675729px;stroke-linecap:butt;stroke-linejoin:miter;stroke-opacity:1"
       d="M 7.9969137,0.54835612 C 7.8271423,0.67392395 7.654621,0.79637832 7.4875995,0.92505959 7.2798927,1.0850866 7.4896795,0.95388758 7.2838738,1.2075873 7.1974402,1.3141351 7.058193,1.3792984 6.9782852,1.4901149 6.93617,1.5485202 6.9185375,1.6200612 6.8764224,1.6784666 6.8231503,1.7523441 6.7406052,1.8040343 6.6726965,1.8668182 6.5029252,2.0237779 6.3331538,2.1807377 6.1633823,2.3376975 6.0954739,2.4004816 6.0172789,2.4550174 5.9596565,2.5260492 5.9141018,2.5822046 5.8999088,2.6559956 5.857794,2.7144011 5.7578682,2.8529784 5.5502683,2.9525272 5.4503426,3.0911045 5.4082279,3.1495103 5.4021666,3.2298211 5.34848,3.2794562 5.2619135,3.3594901 5.1408307,3.3998969 5.0428916,3.4678079 c -0.038414,0.026636 -0.067909,0.062784 -0.1018623,0.094175 -0.033954,0.031393 -0.080388,0.054468 -0.1018623,0.094175 -0.015184,0.028077 0.02401,0.071978 0,0.094175 -0.086567,0.080034 -0.2190215,0.1083176 -0.3055883,0.1883516 -0.053686,0.049635 -0.059748,0.1299464 -0.1018623,0.1883517 -0.026636,0.03694 -0.080388,0.054468 -0.1018623,0.094175 -0.048018,0.08879 -0.04662,0.1974041 -0.1018622,0.2825277 -0.049411,0.076136 -0.1607765,0.1089356 -0.2037258,0.1883516 -0.03037,0.056156 0.02522,0.1300583 0,0.1883517 -0.090935,0.21018 -0.3110011,0.3569878 -0.4074514,0.5650553 -0.055148,0.1189671 -0.063402,0.2522512 -0.1018623,0.3767034 -0.029498,0.09545 -0.084211,0.1846082 -0.1018622,0.2825276 -0.016746,0.092894 0,0.1883518 0,0.2825276 0,0.1255678 0,0.2511357 0,0.3767034 0,0.3453116 0,0.6906231 0,1.0359347 0,0.2197436 0,0.4394872 0,0.659231 0,0.062784 0,0.1255678 0,0.1883516 0,0.062784 -0.01647,0.1274425 0,0.1883517 0.018414,0.068098 0.067908,0.1255679 0.1018622,0.1883519 0.033954,0.062784 0.059748,0.1299468 0.1018623,0.1883516 0.026636,0.036941 0.080389,0.054468 0.1018623,0.094172 0.01842,0.034061 0,0.405377 0,0.4708801 0,0.3139199 0,0.6278399 0,0.9417599 0,0.06279 0.030369,0.132194 0,0.188351 -0.04295,0.07941 -0.1437318,0.119019 -0.2037259,0.188352 -0.1529552,0.176767 -0.254496,0.388289 -0.4074514,0.565055 -0.1297038,0.149895 -0.3553575,0.328541 -0.5093142,0.47088 -0.1018623,0.09417 -0.1857268,0.20865 -0.3055886,0.282528 -0.028251,0.01741 -0.071493,-0.01404 -0.1018623,0 -0.04295,0.01986 -0.061909,0.06955 -0.1018622,0.09417 -0.063172,0.03893 -0.140553,0.05524 -0.2037256,0.09417 -0.039954,0.02463 -0.067908,0.06279 -0.1018622,0.09417 -0.033955,0.03139 -0.075227,0.05724 -0.1018623,0.09417 -0.042114,0.0584 -0.059748,0.129947 -0.1018622,0.188354 -0.026636,0.03693 -0.080388,0.05446 -0.1018623,0.09417 -0.015185,0.02807 0.010733,0.06439 0,0.09417 -0.02401,0.0666 -0.077854,0.121761 -0.1018623,0.188353 -0.010734,0.02978 0.010733,0.06438 0,0.09417 -0.048018,0.133185 -0.1668973,0.240505 -0.2037258,0.376702 -0.041176,0.152274 0.02791,0.316057 0,0.470881 -0.017652,0.09792 -0.080805,0.185185 -0.1018622,0.282526 -0.013318,0.06156 0,0.125569 0,0.188353 0,0.248132 0,0.12857 0,0.376702 0,0.439489 0,0.878975 0,1.318463 0,0.345311 0,0.690623 0,1.035935 0,0.09417 0,0.188351 0,0.282527 0,0.125569 -0.032941,0.254885 0,0.376704 0.00824,0.03045 0.077854,-0.02221 0.1018622,0 0.00327,0.003 0,0.259687 0,0.282528 0,0.34531 0,0.690622 0,1.035934 0,0.06279 0,0.125566 0,0.188352 0,0.09417 0.032212,0.193183 0,0.282527 -0.038713,0.107376 -0.1555005,0.178493 -0.20372574,0.282527 -0.0551476,0.118967 -0.0575922,0.253913 -0.10186226,0.376702 -0.0240087,0.0666 -0.0869728,0.119522 -0.10186225,0.188353 -0.0199776,0.09234 0,0.188353 0,0.282528 -0.0339541,0.125567 -0.0634026,0.25225 -0.10186227,0.376702 -0.0294982,0.09545 -0.0866783,0.184257 -0.10186226,0.28253 -0.0192076,0.124304 0,0.251135 0,0.376702 0,0.219744 0,0.43949 0,0.659233 0,0.722014 0,1.444029 0,2.166043 0,0.188354 0,0.376704 0,0.565055 0,0.03139 -0.0282516,0.07676 0,0.09417 0.08934,0.05506 0.2037258,0.06279 0.30558869,0.09417 0.10186225,0.03139 0.19967649,0.07786 0.30558859,0.09417 0.1004769,0.01549 0.2076449,-0.02588 0.3055885,0 0.1460056,0.03857 0.2614458,0.149785 0.4074515,0.188352 0.097944,0.02587 0.2047494,-0.01331 0.3055884,0 0.13859,0.01831 0.2688614,0.07588 0.4074514,0.09417 0.1008391,0.01331 0.2037258,0 0.3055887,0 0.1697714,0 0.3395427,0 0.5093143,0 0.1018622,0 0.208953,-0.02978 0.3055886,0 0.045555,0.01404 0.067908,0.06279 0.1018622,0.09417 0.067909,0.03139 0.1300685,0.07715 0.2037257,0.09417 0.06588,0.01523 0.1406744,-0.02331 0.2037258,0 0.2273355,0.08407 0.3921786,0.275464 0.611177,0.376702 0.1920746,0.08878 0.4137949,0.110143 0.6111772,0.188352 0.1395705,0.0553 0.2592192,0.157897 0.4074513,0.188351 0.1657288,0.03405 0.3435858,-0.03405 0.5093145,0 0.017793,0.0037 0.7856716,0.367694 0.8149027,0.376705 0.164249,0.05061 0.3450654,0.04355 0.5093144,0.09417 0.1440559,0.04439 0.2686907,0.131334 0.4074515,0.18835 0.1670899,0.06866 0.3422244,0.119696 0.5093142,0.188352 0.4143332,0.170254 0.816763,0.377563 1.2223533,0.565055 0.2716356,0.125569 0.5373826,0.262669 0.8149046,0.376704 0.167088,0.06866 0.349474,0.106253 0.509313,0.188352 0.148408,0.07622 0.263487,0.199339 0.407452,0.282528 0.128766,0.07441 0.271634,0.125568 0.40745,0.188351 0.135818,0.06279 0.267884,0.133051 0.407453,0.188353 0.09869,0.03911 0.212363,0.04492 0.305589,0.09417 0.0511,0.02699 0.442133,0.345445 0.611176,0.376702 0.09988,0.01847 0.208953,-0.02978 0.305589,0 0.116141,0.03579 0.19609,0.137734 0.305589,0.188353 0.396448,0.183266 0.256122,0.0073 0.713039,0.188351 0.112523,0.04459 0.196089,0.137735 0.305589,0.188352 0.221095,0.102209 0.491946,0.08614 0.713041,0.188352 0.151846,0.0702 0.255602,0.212332 0.407451,0.282527 0.357322,0.165179 0.527976,0.05423 0.916765,0.09417 1.213231,0.124631 -0.386439,0.09417 0.814904,0.09417 1.355989,0 -0.201834,-0.05615 0.611177,0.09417 0.166475,0.03078 0.339542,0 0.509312,0 0.0242,0 0.384622,0.01056 0.407452,0 0.04295,-0.01986 0.05891,-0.07433 0.101859,-0.09417 0.03037,-0.01403 0.07784,-0.02221 0.101858,0 0.02401,0.02221 0,0.125568 0,0.09417 0,-0.09417 -0.03783,-0.195089 0,-0.282529 0.03568,-0.08243 0.135817,-0.125567 0.203724,-0.188351 0.169772,-0.15696 0.339544,-0.31392 0.509315,-0.470881 0.06791,-0.06279 0.135818,-0.125568 0.203727,-0.18835 0.06791,-0.06279 0.146103,-0.117321 0.203725,-0.188354 0.04555,-0.05615 0.05631,-0.132194 0.101858,-0.18835 0.184461,-0.227389 0.258725,-0.19136 0.509313,-0.376704 0.075,-0.05547 0.126897,-0.135077 0.203726,-0.18835 0.06074,-0.04212 0.135817,-0.06279 0.203725,-0.09417 0.203726,-0.09417 0.407452,-0.188351 0.611177,-0.282528 0.203727,-0.09417 0.407453,-0.188351 0.611178,-0.282527 0.0679,-0.03139 0.130069,-0.07715 0.203726,-0.09417 0.06587,-0.01523 0.137845,0.01523 0.203726,0 0.164449,-0.038 0.202043,-0.09262 0.305589,-0.188353 0.03396,-0.03139 0.05891,-0.07433 0.101858,-0.09417 0.03036,-0.01404 0.07149,0.01404 0.101858,0 0.218593,-0.101052 0.0047,-0.10284 0.101858,-0.282527 0.04295,-0.07941 0.150453,-0.114475 0.203725,-0.188352 0.01883,-0.02613 -0.01883,-0.06806 0,-0.09417 0.05326,-0.07388 0.135817,-0.125567 0.203724,-0.18835 0.06791,-0.06279 0.135818,-0.12557 0.203728,-0.188352 0.06523,-0.06032 0.312126,-0.317949 0.407451,-0.376704 0.06317,-0.03893 0.142985,-0.05207 0.203725,-0.09417 0.07683,-0.05327 0.126897,-0.135078 0.203726,-0.188353 0.06074,-0.04212 0.135817,-0.06279 0.203726,-0.09417 0.06791,-0.03139 0.133232,-0.0681 0.203727,-0.09417 0.296744,-0.109738 0.613504,-0.189067 0.916766,-0.282525 0.101858,-0.03139 0.203723,-0.06279 0.305586,-0.09417 0.101858,-0.03139 0.200301,-0.07471 0.305589,-0.09417 0.06658,-0.01232 0.137845,0.01523 0.203727,0 0.07366,-0.01702 0.133231,-0.0681 0.203725,-0.09417 0.0663,-0.02451 0.429685,-0.114731 0.509313,-0.188351 0.05368,-0.04964 0.04818,-0.138717 0.101858,-0.188352 0.05368,-0.04964 0.140552,-0.05524 0.203725,-0.09417 0.04184,-0.0258 0.27769,-0.243838 0.305589,-0.282526 0.04211,-0.0584 0.06791,-0.125569 0.101858,-0.188351 0.03396,-0.06279 0.08344,-0.120254 0.101858,-0.188353 0.01647,-0.06092 -0.01647,-0.127441 0,-0.188351 0.13113,-0.484934 0.104378,0.172101 0.203727,-0.470881 0.01921,-0.124304 0,-0.251135 0,-0.376704 0,-0.282526 0,-0.565055 0,-0.847581 0,-0.97315 0,-1.946302 0,-2.919451 0,-0.188353 0,-0.376704 0,-0.565056 0,-0.219743 -0.03614,-0.442043 0,-0.659231 0.03265,-0.196232 0.155437,-0.3716 0.203726,-0.565056 0.05398,-0.216289 0.05155,-0.442183 0.101857,-0.65923 0.05179,-0.223463 0.148143,-0.436547 0.203725,-0.659231 0.04643,-0.18606 0.07045,-0.376327 0.101858,-0.565055 0.0365,-0.219394 0.03869,-0.445079 0.101858,-0.659231 0.03996,-0.135443 0.155708,-0.243519 0.203726,-0.376703 0.05474,-0.151855 0.04107,-0.321004 0.101858,-0.47088 0.04299,-0.105978 0.148978,-0.181292 0.203727,-0.282529 0.09604,-0.177579 0.107688,-0.387475 0.203726,-0.565055 0.05474,-0.101234 0.158257,-0.177438 0.203725,-0.282527 0.02521,-0.05829 -0.03038,-0.132196 0,-0.188351 0.183174,-0.338702 0.176518,-0.06902 0.407451,-0.282528 0.222445,-0.205657 0.02117,-0.152905 0.101858,-0.376703 0.01518,-0.04212 0.08038,-0.05446 0.101859,-0.09417 0.01518,-0.02808 0,-0.06279 0,-0.09417 0,-0.03139 0,-0.06278 0,-0.09417 0,-0.156959 0,-0.31392 0,-0.470879 0,-0.09417 0.05921,-0.205893 0,-0.282528 C 31.191556,11.546824 30.224211,11.126649 29.999291,11.00188 29.619671,10.791295 29.252297,10.56239 28.8788,10.342647 28.505302,10.122903 28.143716,9.8848148 27.758307,9.6834147 27.251549,9.4186012 25.975702,8.8694637 25.415463,8.6474806 25.079333,8.5142958 24.733874,8.4019798 24.396834,8.2707771 24.088628,8.1507996 23.79174,8.0061329 23.480069,7.8940736 22.879637,7.6781933 22.249755,7.5381548 21.646537,7.3290184 21.404414,7.245074 21.183354,7.1080913 20.933497,7.0464909 20.668992,6.9812794 20.387027,7.0019503 20.118593,6.9523154 19.876202,6.9074956 19.650261,6.7962837 19.405555,6.7639637 18.01676,6.5805369 19.334691,6.9594812 18.081338,6.6697882 17.873003,6.6216351 17.680735,6.5203734 17.47016,6.4814364 c -0.13318,-0.024625 -0.271635,0 -0.407453,0 -0.169771,-0.031392 -0.341349,-0.055354 -0.509313,-0.094175 -0.208335,-0.048155 -0.399352,-0.155712 -0.611177,-0.1883517 -0.100481,-0.015481 -0.205111,0.015481 -0.305588,0 -0.105904,-0.016319 -0.200302,-0.074708 -0.305589,-0.094175 -0.06658,-0.012313 -0.137136,0.012313 -0.203726,0 -0.10529,-0.019468 -0.2003,-0.074708 -0.305589,-0.094175 -0.06658,-0.012314 -0.137845,0.015226 -0.203726,0 -0.295426,-0.068284 -0.119206,-0.073474 -0.305588,-0.188352 -0.06317,-0.038937 -0.140553,-0.055239 -0.203726,-0.094176 -0.253377,-0.1561712 -0.0117,-0.021639 -0.101858,-0.1883518 -0.233093,-0.4310059 0.04221,0.3996276 -0.203727,-0.2825275 -0.01072,-0.02978 0.02401,-0.071978 0,-0.094175 -0.05368,-0.049635 -0.150039,-0.044541 -0.203725,-0.094175 -0.02401,-0.022197 0.01518,-0.066098 0,-0.094175 -0.02147,-0.039708 -0.06791,-0.062784 -0.101858,-0.094175 -0.101857,-0.094175 -0.203726,-0.1883517 -0.305589,-0.2825277 -0.03396,-0.031392 -0.07522,-0.057237 -0.101858,-0.094175 -0.296594,-0.4113171 0.04515,0.031042 -0.101858,-0.3767034 -0.01518,-0.042117 -0.07522,-0.057238 -0.101858,-0.094175 -0.04211,-0.058405 -0.05974,-0.1299462 -0.101858,-0.1883516 -0.02663,-0.036939 -0.07522,-0.057238 -0.101858,-0.094175 -0.04211,-0.058406 -0.05974,-0.1299464 -0.101857,-0.1883518 -0.124256,-0.1723171 -0.129871,-0.00939 -0.203727,-0.2825276 -0.02471,-0.091364 0.03221,-0.1931845 0,-0.2825277 -0.245945,-0.6821549 0.02937,0.1484785 -0.203725,-0.2825274 -0.01518,-0.028077 0.01071,-0.064395 0,-0.094175 -0.02401,-0.066593 -0.06791,-0.1255679 -0.101858,-0.1883518 -0.03396,-0.062783 -0.04818,-0.1387165 -0.101858,-0.1883517 -0.02401,-0.022197 -0.07361,0.017412 -0.101858,0 C 11.787841,2.1942723 11.740846,2.1084473 11.664017,2.0551732 11.603274,2.0130553 11.528199,1.9923897 11.460291,1.9609979 11.358432,1.8982138 11.2503,1.8433517 11.154701,1.7726453 10.674881,1.4177817 11.272397,1.7437767 10.645349,1.3959389 10.452625,1.2890316 10.235261,1.2063688 10.034172,1.1134113 9.9662623,1.0820193 9.8936187,1.0581724 9.8304449,1.0192355 9.7505377,0.96998371 9.7126181,0.87059179 9.6267203,0.83088371 c -0.064618,-0.0298684 -0.4431422,0.0305897 -0.5093155,0 -0.042949,-0.0198542 -0.058909,-0.0743213 -0.101858,-0.0941757 -0.047576,-0.0219951 -0.4448502,0.0170281 -0.5093142,0 C 8.3304139,0.690266 8.1666851,0.61114004 7.9969137,0.54835612 z"
       id="path2993"
       inkscape:connector-curvature="0" />
    <path
       style="fill:#4d537a;fill-opacity:1;stroke:#000000;stroke-width:1.09675729px;stroke-linecap:round;stroke-linejoin:round;stroke-opacity:1"
       d="m 5.4503422,26.352544 c 0,0 -1.3444382,-1.90128 -1.5279427,-3.20198 -0.3055885,-2.166044 0.9234979,-6.543355 1.9353942,-4.332089 1.1204915,2.448572 1.2223543,5.933079 2.3428458,7.439894 1.1204919,1.506812 1.4260808,2.166043 1.4260808,2.166043 z"
       id="path2995"
       inkscape:connector-curvature="0"
       sodipodi:nodetypes="cssscc" />
    <path
       style="fill:#4d537a;fill-opacity:1;stroke:#000000;stroke-width:1.09675729px;stroke-linecap:round;stroke-linejoin:round;stroke-opacity:1"
       d="m 17.673886,6.7639632 c -4.481966,0.8475829 -6.00991,2.1660449 -7.537852,4.4262668 -1.5279431,2.26022 -1.6298059,6.59231 0.30559,4.237913 1.935393,-2.354396 4.066469,-3.824141 6.315496,-4.33209 2.017737,-0.45571 8.761591,-2.6076886 9.983946,-1.854281 1.222353,0.7534066 -5.259103,-2.1530237 -5.259103,-2.1530237 z"
       id="path2997"
       inkscape:connector-curvature="0"
       sodipodi:nodetypes="csssscc" />
    <path
       style="fill:#4d537a;fill-opacity:1;stroke:#000000;stroke-width:1.09675729px;stroke-linecap:round;stroke-linejoin:round;stroke-opacity:1"
       d="m 16.04408,17.217485 c 0.407451,2.825277 1.527943,7.345717 3.972651,8.475828 2.44471,1.13011 6.213635,0.376704 6.213635,0.376704 l 2.444707,-0.941759 0.611177,-2.448573 c 0,0 -4.668408,0.999524 -6.315496,0.188352 -1.960939,-0.965742 -4.635072,-2.861627 -5.70432,-6.403959 -1.222354,-4.049562 -1.222354,0.753407 -1.222354,0.753407 z"
       id="path2999"
       inkscape:connector-curvature="0"
       sodipodi:nodetypes="cscccssc" />
  </g>
</svg>
