<?xml version="1.0" encoding="UTF-8" standalone="no"?>
<!-- Created with Inkscape (http://www.inkscape.org/) -->

<svg
   xmlns:dc="http://purl.org/dc/elements/1.1/"
   xmlns:cc="http://creativecommons.org/ns#"
   xmlns:rdf="http://www.w3.org/1999/02/22-rdf-syntax-ns#"
   xmlns:svg="http://www.w3.org/2000/svg"
   xmlns="http://www.w3.org/2000/svg"
   xmlns:sodipodi="http://sodipodi.sourceforge.net/DTD/sodipodi-0.dtd"
   xmlns:inkscape="http://www.inkscape.org/namespaces/inkscape"
   width="128"
   height="128"
   id="svg5141"
   version="1.1"
   inkscape:version="0.48.5 r10040"
   sodipodi:docname="AsteroidMassive.svg">
  <defs
     id="defs5143" />
  <sodipodi:namedview
     id="base"
     pagecolor="#ffffff"
     bordercolor="#666666"
     borderopacity="1.0"
     inkscape:pageopacity="0.0"
     inkscape:pageshadow="2"
     inkscape:zoom="1.9445436"
     inkscape:cx="65.243448"
     inkscape:cy="-14.897648"
     inkscape:current-layer="layer1"
     showgrid="true"
     inkscape:document-units="px"
     inkscape:grid-bbox="true"
     inkscape:window-width="1918"
     inkscape:window-height="1078"
     inkscape:window-x="0"
     inkscape:window-y="0"
     inkscape:window-maximized="0" />
  <metadata
     id="metadata5146">
    <rdf:RDF>
      <cc:Work
         rdf:about="">
        <dc:format>image/svg+xml</dc:format>
        <dc:type
           rdf:resource="http://purl.org/dc/dcmitype/StillImage" />
        <dc:title></dc:title>
      </cc:Work>
    </rdf:RDF>
  </metadata>
  <g
     id="layer1"
     inkscape:label="Layer 1"
     inkscape:groupmode="layer"
     transform="translate(0,64)">
    <path
       style="fill:#005f74;fill-opacity:1;stroke:#000000;stroke-width:3;stroke-linecap:butt;stroke-linejoin:miter;stroke-miterlimit:4;stroke-opacity:1;stroke-dasharray:none"
       d="M 18.846567,-41.630812 C 1.2675877,-39.992034 13.975283,-14.795838 8.0450255,-9.6746612 -7.1224374,3.423464 9.074017,17.111979 17.999387,31.499609 c 5.083078,8.193884 4.445682,15.179041 23.721033,25.196196 14.190262,7.374496 62.89201,10.114778 62.6913,-3.687249 -0.12643,-8.694894 31.08001,-34.728836 12.98041,-58.5845104 -10.22847,-13.4813596 -14.50202,-28.1148166 -2.54154,-32.0435816 8.85746,-2.90949 -28.054468,-11.624604 -20.06031,-21.858674 2.792646,-3.575134 -24.265748,12.521374 -45.233446,1.664477 -25.803334,-13.360749 -17.367186,8.398731 -30.710267,16.182921 z"
       id="path3073"
       inkscape:connector-curvature="0"
       sodipodi:nodetypes="cssssssssc" />
    <path
       style="fill:#4d537a;fill-opacity:1;stroke:#000000;stroke-width:2.10056233;stroke-linecap:round;stroke-linejoin:round;stroke-miterlimit:4;stroke-opacity:1;stroke-dasharray:none"
       d="M 52.196845,56.621499 C 41.989489,46.949686 39.773166,40.376429 38.712613,30.806379 37.652052,21.236335 42.71293,7.2925699 44.68042,17.79636 46.647905,28.300145 50.192134,36.293372 55.212717,41.409603 59.71698,45.999674 73.999758,63.342122 77.99188,62.846881 81.983996,62.351638 62.151838,61.514012 62.151838,61.514012 z"
       id="path2997-2-2"
       inkscape:connector-curvature="0"
       sodipodi:nodetypes="csssscc" />
    <path
       style="fill:#4d537a;fill-opacity:1;stroke:#000000;stroke-width:1.8846004;stroke-linecap:round;stroke-linejoin:round;stroke-miterlimit:4;stroke-opacity:1;stroke-dasharray:none"
       d="m 39.456032,-57.709625 c -9.294334,5.018055 -11.712342,10.277958 -13.443798,18.784533 -1.731461,8.506567 1.201368,23.488882 3.765288,14.467095 2.563915,-9.021784 6.20551,-15.085287 10.809116,-17.888208 4.130171,-2.514661 17.475945,-13.087365 20.728518,-11.061675 3.252566,2.025684 -13.200487,-4.962961 -13.200487,-4.962961 z"
       id="path2997-9"
       inkscape:connector-curvature="0"
       sodipodi:nodetypes="csssscc" />
    <path
       style="fill:#4d537a;fill-opacity:1;stroke:#000000;stroke-width:2.64255261;stroke-linecap:round;stroke-linejoin:round;stroke-miterlimit:4;stroke-opacity:1;stroke-dasharray:none"
       d="m 99.740828,-48.710529 c -10.240459,0.346514 -19.139012,6.846694 -26.09133,12.784479 -6.952318,5.937771 -10.643638,18.16383 -2.730303,12.144003 7.913331,-6.019826 13.884078,-10.619486 19.167787,-11.037329 4.74032,-0.374864 25.030708,-2.198672 17.866678,0.09922 -2.86307,0.918343 7.39559,-5.285933 7.39559,-5.285933 z"
       id="path2997-2-9-3-3"
       inkscape:connector-curvature="0"
       sodipodi:nodetypes="csssscc" />
    <path
       style="fill:#4d537a;fill-opacity:1;stroke:#000000;stroke-width:2.28177929;stroke-linecap:round;stroke-linejoin:round;stroke-miterlimit:4;stroke-opacity:1;stroke-dasharray:none"
       d="M 123.55305,8.9283535 C 111.57962,22.49256 96.322457,20.843446 91.161836,18.579467 86.001217,16.315503 80.344946,7.7331194 86.235649,9.575364 c 5.890696,1.842241 10.951181,2.277131 15.321551,1.151456 4.91362,-1.26561 10.03872,-3.5617684 15.52985,-11.8918343 1.75718,-2.6656446 4.03103,5.4692931 4.03103,5.4692931 z"
       id="path2997-2-9-3-1"
       inkscape:connector-curvature="0"
       sodipodi:nodetypes="csssscc" />
    <path
       style="fill:#4d537a;fill-opacity:1;stroke:#000000;stroke-width:2.28177929;stroke-linecap:round;stroke-linejoin:round;stroke-miterlimit:4;stroke-opacity:1;stroke-dasharray:none"
       d="M 9.2936612,19.390216 C 6.3354235,1.540861 19.065915,-3.9763157 24.079979,-6.5486237 c 5.014051,-2.572317 15.240681,-1.539483 10.092671,1.865256 -5.148003,3.4047342 -7.225928,4.50884025 -11.112512,8.0631495 -3.744344,3.4242305 -5.031107,7.1243682 -2.947793,31.5512322 0.271314,3.181154 -3.877301,-6.87295 -3.877301,-6.87295 z"
       id="path2997-2-9-3-1-4"
       inkscape:connector-curvature="0"
       sodipodi:nodetypes="csssscc" />
    <path
       transform="matrix(-0.56182555,-0.82725574,0.82725574,-0.56182555,82.044614,14.66412)"
       sodipodi:type="star"
       style="fill:#f9b11e;fill-opacity:1;fill-rule:nonzero;stroke:#000000;stroke-opacity:1"
       id="path5733-1-9-7"
       sodipodi:sides="5"
       sodipodi:cx="18.363636"
       sodipodi:cy="26.545456"
       sodipodi:r1="2.6865723"
       sodipodi:r2="5.1215882"
       sodipodi:arg1="1.9011685"
       sodipodi:arg2="3.9889197"
       inkscape:flatsided="true"
       inkscape:rounded="0"
       inkscape:randomized="0.1"
       d="m 17.082645,29.156959 -0.955506,-2.216177 0.983496,-2.867519 3.035078,0.704774 -0.01148,2.896727 z"
       inkscape:transform-center-x="3.171699"
       inkscape:transform-center-y="1.0027643" />
    <path
       transform="matrix(0.39142148,-0.92021151,0.92021151,0.39142148,65.361931,42.203783)"
       sodipodi:type="star"
       style="fill:#f9b11e;fill-opacity:1;fill-rule:nonzero;stroke:#000000;stroke-opacity:1"
       id="path5733-1-8"
       sodipodi:sides="5"
       sodipodi:cx="18.363636"
       sodipodi:cy="26.545456"
       sodipodi:r1="2.6865723"
       sodipodi:r2="5.1215882"
       sodipodi:arg1="1.9011685"
       sodipodi:arg2="3.9889197"
       inkscape:flatsided="true"
       inkscape:rounded="0"
       inkscape:randomized="0.1"
       d="m 17.082645,29.156959 -0.955506,-2.216177 0.983496,-2.867519 3.035078,0.704774 -0.01148,2.896727 z"
       inkscape:transform-center-x="0.31751505"
       inkscape:transform-center-y="0.32564947" />
    <path
       sodipodi:type="star"
       style="fill:#f9b11e;fill-opacity:1;fill-rule:nonzero;stroke:#000000;stroke-opacity:1"
       id="path5733-45"
       sodipodi:sides="5"
       sodipodi:cx="18.363636"
       sodipodi:cy="26.545456"
       sodipodi:r1="2.93173"
       sodipodi:r2="1.465865"
       sodipodi:arg1="-2.0899424"
       sodipodi:arg2="-1.4616239"
       inkscape:flatsided="false"
       inkscape:rounded="0"
       inkscape:randomized="0.2"
       d="m 17.457781,23.595338 1.56874,1.067987 0.934899,0.08446 0.134118,0.977925 0.784511,2.412467 -2.145943,-0.2322 -0.750494,1.604854 -0.115731,-1.370109 -2.364407,-0.943064 2.074819,-1.326582 z"
       inkscape:transform-center-x="0.12786819"
       inkscape:transform-center-y="-0.052710835"
       transform="matrix(0.74396142,0,0,0.73655125,27.011486,-16.830435)" />
    <path
       transform="matrix(0.39142148,-0.92021151,0.92021151,0.39142148,-15.910797,-21.796217)"
       sodipodi:type="star"
       style="fill:#f9b11e;fill-opacity:1;fill-rule:nonzero;stroke:#000000;stroke-opacity:1"
       id="path5733-1-7-0"
       sodipodi:sides="5"
       sodipodi:cx="18.363636"
       sodipodi:cy="26.545456"
       sodipodi:r1="2.6865723"
       sodipodi:r2="5.1215882"
       sodipodi:arg1="1.9011685"
       sodipodi:arg2="3.9889197"
       inkscape:flatsided="true"
       inkscape:rounded="0"
       inkscape:randomized="0.1"
       d="m 17.082645,29.156959 -0.955506,-2.216177 0.983496,-2.867519 3.035078,0.704774 -0.01148,2.896727 z"
       inkscape:transform-center-x="0.31751505"
       inkscape:transform-center-y="0.32564947" />
    <path
       transform="matrix(0.32691827,-0.50676126,0.76856783,0.21555614,2.8643684,39.434865)"
       sodipodi:type="star"
       style="fill:#f9b11e;fill-opacity:1;fill-rule:nonzero;stroke:#000000;stroke-opacity:1"
       id="path5733-1-4-3"
       sodipodi:sides="5"
       sodipodi:cx="18.363636"
       sodipodi:cy="26.545456"
       sodipodi:r1="2.6865723"
       sodipodi:r2="5.1215882"
       sodipodi:arg1="1.9011685"
       sodipodi:arg2="3.9889197"
       inkscape:flatsided="true"
       inkscape:rounded="0"
       inkscape:randomized="0.1"
       d="m 17.082645,29.156959 -0.955506,-2.216177 0.983496,-2.867519 3.035078,0.704774 -0.01148,2.896727 z"
       inkscape:transform-center-x="0.26519109"
       inkscape:transform-center-y="0.17933517" />
    <path
       transform="matrix(0.39142148,-0.92021151,0.92021151,0.39142148,26.998295,-34.523489)"
       sodipodi:type="star"
       style="fill:#f9b11e;fill-opacity:1;fill-rule:nonzero;stroke:#000000;stroke-opacity:1"
       id="path5733-1-6"
       sodipodi:sides="5"
       sodipodi:cx="18.363636"
       sodipodi:cy="26.545456"
       sodipodi:r1="2.6865723"
       sodipodi:r2="5.1215882"
       sodipodi:arg1="1.9011685"
       sodipodi:arg2="3.9889197"
       inkscape:flatsided="true"
       inkscape:rounded="0"
       inkscape:randomized="0.1"
       d="m 17.082645,29.156959 -0.955506,-2.216177 0.983496,-2.867519 3.035078,0.704774 -0.01148,2.896727 z"
       inkscape:transform-center-x="0.31751505"
       inkscape:transform-center-y="0.32564947" />
    <path
       transform="matrix(0.54788297,0,0,0.49686418,61.123953,34.806724)"
       sodipodi:type="star"
       style="fill:#f9b11e;fill-opacity:1;fill-rule:nonzero;stroke:#000000;stroke-opacity:1"
       id="path5733-4-1"
       sodipodi:sides="5"
       sodipodi:cx="18.363636"
       sodipodi:cy="26.545456"
       sodipodi:r1="2.93173"
       sodipodi:r2="1.465865"
       sodipodi:arg1="-2.0899424"
       sodipodi:arg2="-1.4616239"
       inkscape:flatsided="false"
       inkscape:rounded="0"
       inkscape:randomized="0.2"
       d="m 17.457781,23.595338 1.56874,1.067987 0.934899,0.08446 0.134118,0.977925 0.784511,2.412467 -2.145943,-0.2322 -0.750494,1.604854 -0.115731,-1.370109 -2.364407,-0.943064 2.074819,-1.326582 z"
       inkscape:transform-center-x="0.094166857"
       inkscape:transform-center-y="-0.035557309" />
    <path
       transform="matrix(0.39142148,-0.92021151,0.92021151,0.39142148,37.839638,9.0816796)"
       sodipodi:type="star"
       style="fill:#f9b11e;fill-opacity:1;fill-rule:nonzero;stroke:#000000;stroke-opacity:1"
       id="path5733-1-7"
       sodipodi:sides="5"
       sodipodi:cx="18.363636"
       sodipodi:cy="26.545456"
       sodipodi:r1="2.6865723"
       sodipodi:r2="5.1215882"
       sodipodi:arg1="1.9011685"
       sodipodi:arg2="3.9889197"
       inkscape:flatsided="true"
       inkscape:rounded="0"
       inkscape:randomized="0.1"
       d="m 17.082645,29.156959 -0.955506,-2.216177 0.983496,-2.867519 3.035078,0.704774 -0.01148,2.896727 z"
       inkscape:transform-center-x="0.31751505"
       inkscape:transform-center-y="0.32564947" />
    <path
       style="fill:#a25800;fill-opacity:1;stroke:#000000;stroke-width:0.6813128;stroke-linecap:butt;stroke-linejoin:miter;stroke-miterlimit:4;stroke-opacity:1;stroke-dasharray:none"
       d="m 64.144884,29.040671 c 1.208218,2.552051 4.99414,1.868312 8.130911,4.528891 3.770298,3.197929 7.253811,8.201152 2.334539,9.805297 -2.415688,0.787742 2.272505,4.698415 7.614177,6.523822 6.803156,2.32484 14.651982,1.265365 18.857429,-0.158801 4.20545,-1.424167 -23.320519,-2.882027 -19.605818,-6.108176 5.405565,-4.694633 -2.738395,-9.977099 -3.785816,-11.938788 -1.797819,-3.367088 -15.811268,-8.521981 -21.075259,-13.151211 -4.772511,-4.197014 5.419287,6.040969 7.529837,10.498966 z"
       id="path5659"
       inkscape:connector-curvature="0"
       sodipodi:nodetypes="sssssssss" />
    <path
       style="fill:#a25800;fill-opacity:1;stroke:#000000;stroke-width:0.6813128;stroke-linecap:butt;stroke-linejoin:miter;stroke-miterlimit:4;stroke-opacity:1;stroke-dasharray:none"
       d="m 56.362329,-5.203056 c -1.081761,2.0740801 8.835985,-1.2255215 13.825973,-2.8267639 6.355252,-2.0393431 7.105454,-3.6970601 8.950233,-7.3519831 1.844781,-3.654925 -8.247001,2.729356 -12.998625,3.017307 -9.74263,0.59041 -6.571314,2.018284 -15.660243,-1.225272 -1.197798,6.8864498 8.419224,2.168575 5.882662,8.386712 z"
       id="path5659-6"
       inkscape:connector-curvature="0"
       sodipodi:nodetypes="cssscc" />
    <path
       style="fill:#a25800;fill-opacity:1;stroke:#000000;stroke-width:0.6813128;stroke-linecap:butt;stroke-linejoin:miter;stroke-miterlimit:4;stroke-opacity:1;stroke-dasharray:none"
       d="m 5.1217189,-5.6768093 c -1.081761,2.299104 6.7789471,-3.063548 11.7689351,-5.7027877 6.355252,-3.361337 5.305546,-4.275155 7.150325,-8.313821 0.616076,-1.686211 -3.273609,5.571854 -13.102519,4.925112 -1.197798,7.1356107 -2.8944845,3.502799 -5.8167411,9.0914967 z"
       id="path5659-6-3"
       inkscape:connector-curvature="0"
       sodipodi:nodetypes="csccc" />
  </g>
</svg>
