<?xml version="1.0" encoding="UTF-8" standalone="no"?>
<!-- Created with Inkscape (http://www.inkscape.org/) -->

<svg
   xmlns:dc="http://purl.org/dc/elements/1.1/"
   xmlns:cc="http://creativecommons.org/ns#"
   xmlns:rdf="http://www.w3.org/1999/02/22-rdf-syntax-ns#"
   xmlns:svg="http://www.w3.org/2000/svg"
   xmlns="http://www.w3.org/2000/svg"
   xmlns:sodipodi="http://sodipodi.sourceforge.net/DTD/sodipodi-0.dtd"
   xmlns:inkscape="http://www.inkscape.org/namespaces/inkscape"
   width="64px"
   height="64px"
   id="svg5141"
   version="1.1"
   inkscape:version="0.48.5 r10040"
   sodipodi:docname="New document 18">
  <defs
     id="defs5143" />
  <sodipodi:namedview
     id="base"
     pagecolor="#ffffff"
     bordercolor="#666666"
     borderopacity="1.0"
     inkscape:pageopacity="0.0"
     inkscape:pageshadow="2"
     inkscape:zoom="5.5"
     inkscape:cx="30.818182"
     inkscape:cy="23.818182"
     inkscape:current-layer="layer1"
     showgrid="true"
     inkscape:document-units="px"
     inkscape:grid-bbox="true"
     inkscape:window-width="1188"
     inkscape:window-height="1078"
     inkscape:window-x="0"
     inkscape:window-y="0"
     inkscape:window-maximized="0" />
  <metadata
     id="metadata5146">
    <rdf:RDF>
      <cc:Work
         rdf:about="">
        <dc:format>image/svg+xml</dc:format>
        <dc:type
           rdf:resource="http://purl.org/dc/dcmitype/StillImage" />
        <dc:title></dc:title>
      </cc:Work>
    </rdf:RDF>
  </metadata>
  <g
     id="layer1"
     inkscape:label="Layer 1"
     inkscape:groupmode="layer">
    <path
       style="fill:#a25800;stroke:#000000;stroke-width:1.39999999999999991;stroke-linecap:butt;stroke-linejoin:miter;stroke-opacity:1;stroke-miterlimit:4;stroke-dasharray:none;fill-opacity:1"
       d="M 10.363636,8.5454546 C 6.0747963,12.374776 6.3636364,25.272727 6.7272727,29.818182 c 0.310295,3.878687 11.6363633,11.090909 10.9090903,16.545454 -0.727272,5.454546 1e-6,6.181818 4.909091,9.818182 4.909091,3.636363 27.09091,9.454546 35.272728,6.363637 C 66,59.454545 62.181818,46 60,39.818182 57.818181,33.636364 54.363636,19.636364 55.818182,15.090909 57.272727,10.545455 49.818182,2.9090909 37.454546,2.7272727 25.090909,2.5454545 15.454545,4 10.363636,8.5454546 z"
       id="path5659"
       inkscape:connector-curvature="0"
       sodipodi:nodetypes="sssssssss" />
    <path
       style="fill:#4d537a;fill-opacity:1;stroke:#000000;stroke-width:1;stroke-linecap:round;stroke-linejoin:round;stroke-miterlimit:4;stroke-opacity:1;stroke-dasharray:none"
       d="m 37.962515,3.6781646 c -6.711953,1.2692953 -9.000121,3.2437537 -11.288285,6.6285414 -2.288166,3.384785 -2.44071,9.87229 0.457635,6.346472 2.898342,-3.525818 6.089727,-5.726829 9.45775,-6.487507 C 39.61127,9.4832243 49.710506,6.2605358 51.54104,7.3887994 53.371571,8.51706 43.665288,4.1645453 43.665288,4.1645453 z"
       id="path2997"
       inkscape:connector-curvature="0"
       sodipodi:nodetypes="csssscc" />
    <path
       style="fill:#4d537a;fill-opacity:1;stroke:#000000;stroke-width:1;stroke-linecap:round;stroke-linejoin:round;stroke-miterlimit:4;stroke-opacity:1;stroke-dasharray:none"
       d="M 39.760147,60.67255 C 34.2882,56.583635 33.100076,53.804684 32.531536,49.758791 c -0.568544,-4.045891 2.144485,-9.940843 3.199215,-5.500196 1.054727,4.440645 2.954713,7.819911 5.646141,9.98288 2.41464,1.940527 10.071335,9.272327 12.211427,9.062956 2.140089,-0.209372 -8.491511,-0.563492 -8.491511,-0.563492 z"
       id="path2997-2"
       inkscape:connector-curvature="0"
       sodipodi:nodetypes="csssscc" />
    <path
       style="fill:#4d537a;fill-opacity:1;stroke:#000000;stroke-width:0.81850094;stroke-linecap:round;stroke-linejoin:round;stroke-miterlimit:4;stroke-opacity:1;stroke-dasharray:none"
       d="m 12.496393,40.142624 c 3.286824,2.006532 5.258088,2.319745 8.007588,2.293732 2.749498,-0.02601 6.388164,-1.533892 3.325713,-1.684126 -3.062449,-0.150234 -5.506776,-0.720054 -7.224377,-1.697156 -1.54096,-0.876616 -7.2109626,-3.579998 -7.29376,-4.481876 -0.082797,-0.901876 1.255694,3.488205 1.255694,3.488205 z"
       id="path2997-2-9"
       inkscape:connector-curvature="0"
       sodipodi:nodetypes="csssscc" />
    <path
       style="fill:#4d537a;fill-opacity:1;stroke:#000000;stroke-width:1;stroke-linecap:round;stroke-linejoin:round;stroke-miterlimit:4;stroke-opacity:1;stroke-dasharray:none"
       d="m 54.990055,28.92506 c -3.516269,-2.707262 -5.462858,-2.963927 -8.093558,-2.611115 -2.630699,0.352807 -5.843532,3.082387 -2.880734,2.964613 2.962798,-0.117775 5.409605,0.479112 7.234082,1.784123 1.636843,1.170803 7.564467,4.676981 7.808243,6.052503 0.243776,1.375518 -1.839508,-5.213675 -1.839508,-5.213675 z"
       id="path2997-2-9-3"
       inkscape:connector-curvature="0"
       sodipodi:nodetypes="csssscc" />
    <path
       sodipodi:type="star"
       style="fill:#f9b11e;fill-opacity:1;fill-rule:nonzero;stroke:#000000;stroke-opacity:1"
       id="path5733"
       sodipodi:sides="5"
       sodipodi:cx="18.363636"
       sodipodi:cy="26.545456"
       sodipodi:r1="2.93173"
       sodipodi:r2="1.465865"
       sodipodi:arg1="-2.0899424"
       sodipodi:arg2="-1.4616239"
       inkscape:flatsided="false"
       inkscape:rounded="0"
       inkscape:randomized="0.2"
       d="m 17.457781,23.595338 1.56874,1.067987 0.934899,0.08446 0.134118,0.977925 0.784511,2.412467 -2.145943,-0.2322 -0.750494,1.604854 -0.115731,-1.370109 -2.364407,-0.943064 2.074819,-1.326582 z"
       inkscape:transform-center-x="0.12786819"
       inkscape:transform-center-y="-0.052710835"
       transform="matrix(0.74396142,0,0,0.73655125,3.6577927,9.5408314)" />
    <path
       transform="matrix(0.39142148,-0.92021151,0.92021151,0.39142148,17.574554,54.366717)"
       sodipodi:type="star"
       style="fill:#f9b11e;fill-opacity:1;fill-rule:nonzero;stroke:#000000;stroke-opacity:1"
       id="path5733-1"
       sodipodi:sides="5"
       sodipodi:cx="18.363636"
       sodipodi:cy="26.545456"
       sodipodi:r1="2.6865724"
       sodipodi:r2="5.1215882"
       sodipodi:arg1="1.9011685"
       sodipodi:arg2="3.9889197"
       inkscape:flatsided="true"
       inkscape:rounded="0"
       inkscape:randomized="0.1"
       d="m 17.082645,29.156959 -0.955506,-2.216177 0.983496,-2.867519 3.035078,0.704774 -0.01148,2.896727 z"
       inkscape:transform-center-x="0.31751505"
       inkscape:transform-center-y="0.32564947" />
    <path
       transform="matrix(-0.56182555,-0.82725574,0.82725574,-0.56182555,33.969564,43.892041)"
       sodipodi:type="star"
       style="fill:#f9b11e;fill-opacity:1;fill-rule:nonzero;stroke:#000000;stroke-opacity:1"
       id="path5733-1-9"
       sodipodi:sides="5"
       sodipodi:cx="18.363636"
       sodipodi:cy="26.545456"
       sodipodi:r1="2.6865723"
       sodipodi:r2="5.1215882"
       sodipodi:arg1="1.9011685"
       sodipodi:arg2="3.9889197"
       inkscape:flatsided="true"
       inkscape:rounded="0"
       inkscape:randomized="0.1"
       d="m 17.082645,29.156959 -0.955506,-2.216177 0.983496,-2.867519 3.035078,0.704774 -0.01148,2.896727 z"
       inkscape:transform-center-x="3.171699"
       inkscape:transform-center-y="1.0027643" />
    <path
       transform="matrix(0.54788297,0,0,0.49686418,48.942135,46.17036)"
       sodipodi:type="star"
       style="fill:#f9b11e;fill-opacity:1;fill-rule:nonzero;stroke:#000000;stroke-opacity:1"
       id="path5733-4"
       sodipodi:sides="5"
       sodipodi:cx="18.363636"
       sodipodi:cy="26.545456"
       sodipodi:r1="2.93173"
       sodipodi:r2="1.465865"
       sodipodi:arg1="-2.0899424"
       sodipodi:arg2="-1.4616239"
       inkscape:flatsided="false"
       inkscape:rounded="0"
       inkscape:randomized="0.2"
       d="m 17.457781,23.595338 1.56874,1.067987 0.934899,0.08446 0.134118,0.977925 0.784511,2.412467 -2.145943,-0.2322 -0.750494,1.604854 -0.115731,-1.370109 -2.364407,-0.943064 2.074819,-1.326582 z"
       inkscape:transform-center-x="0.094166857"
       inkscape:transform-center-y="-0.035557309" />
    <path
       transform="matrix(0.39142148,-0.92021151,0.92021151,0.39142148,-19.183524,17.294692)"
       sodipodi:type="star"
       style="fill:#f9b11e;fill-opacity:1;fill-rule:nonzero;stroke:#000000;stroke-opacity:1"
       id="path5733-1-7"
       sodipodi:sides="5"
       sodipodi:cx="18.363636"
       sodipodi:cy="26.545456"
       sodipodi:r1="2.6865723"
       sodipodi:r2="5.1215882"
       sodipodi:arg1="1.9011685"
       sodipodi:arg2="3.9889197"
       inkscape:flatsided="true"
       inkscape:rounded="0"
       inkscape:randomized="0.1"
       d="m 17.082645,29.156959 -0.955506,-2.216177 0.983496,-2.867519 3.035078,0.704774 -0.01148,2.896727 z"
       inkscape:transform-center-x="0.31751505"
       inkscape:transform-center-y="0.32564947" />
    <path
       transform="matrix(-0.30417159,-0.44787513,0.44787513,-0.30417159,25.220195,46.568394)"
       sodipodi:type="star"
       style="fill:#f9b11e;fill-opacity:1;fill-rule:nonzero;stroke:#000000;stroke-opacity:1;stroke-width:1.10824068;stroke-miterlimit:4;stroke-dasharray:none"
       id="path5733-1-9-8"
       sodipodi:sides="5"
       sodipodi:cx="18.363636"
       sodipodi:cy="26.545456"
       sodipodi:r1="2.6865723"
       sodipodi:r2="5.1215882"
       sodipodi:arg1="1.9011685"
       sodipodi:arg2="3.9889197"
       inkscape:flatsided="true"
       inkscape:rounded="0"
       inkscape:randomized="0.1"
       d="m 17.082645,29.156959 -0.955506,-2.216177 0.983496,-2.867519 3.035078,0.704774 -0.01148,2.896727 z"
       inkscape:transform-center-x="1.7171541"
       inkscape:transform-center-y="0.54289533" />
    <path
       transform="matrix(0.32691827,-0.50676126,0.76856783,0.21555614,-3.4992677,57.343956)"
       sodipodi:type="star"
       style="fill:#f9b11e;fill-opacity:1;fill-rule:nonzero;stroke:#000000;stroke-opacity:1"
       id="path5733-1-4"
       sodipodi:sides="5"
       sodipodi:cx="18.363636"
       sodipodi:cy="26.545456"
       sodipodi:r1="2.6865723"
       sodipodi:r2="5.1215882"
       sodipodi:arg1="1.9011685"
       sodipodi:arg2="3.9889197"
       inkscape:flatsided="true"
       inkscape:rounded="0"
       inkscape:randomized="0.1"
       d="m 17.082645,29.156959 -0.955506,-2.216177 0.983496,-2.867519 3.035078,0.704774 -0.01148,2.896727 z"
       inkscape:transform-center-x="0.26519109"
       inkscape:transform-center-y="0.17933517" />
  </g>
</svg>
