<?xml version="1.0" encoding="UTF-8" standalone="no"?>
<!-- Created with Inkscape (http://www.inkscape.org/) -->

<svg
   xmlns:dc="http://purl.org/dc/elements/1.1/"
   xmlns:cc="http://creativecommons.org/ns#"
   xmlns:rdf="http://www.w3.org/1999/02/22-rdf-syntax-ns#"
   xmlns:svg="http://www.w3.org/2000/svg"
   xmlns="http://www.w3.org/2000/svg"
   xmlns:sodipodi="http://sodipodi.sourceforge.net/DTD/sodipodi-0.dtd"
   xmlns:inkscape="http://www.inkscape.org/namespaces/inkscape"
   width="32px"
   height="32px"
   id="svg3080"
   version="1.1"
   inkscape:version="0.48.5 r10040"
   sodipodi:docname="Spaceship.svg"
   inkscape:export-filename="/home/mike/dev/ts/minild-74-jam/assets/img/Spaceship.png"
   inkscape:export-xdpi="90"
   inkscape:export-ydpi="90">
  <defs
     id="defs3082" />
  <sodipodi:namedview
     id="base"
     pagecolor="#ffffff"
     bordercolor="#666666"
     borderopacity="1.0"
     inkscape:pageopacity="0.0"
     inkscape:pageshadow="2"
     inkscape:zoom="15.898854"
     inkscape:cx="21.930935"
     inkscape:cy="12.102281"
     inkscape:current-layer="layer1"
     showgrid="true"
     inkscape:grid-bbox="true"
     inkscape:document-units="px"
     inkscape:window-width="1918"
     inkscape:window-height="1078"
     inkscape:window-x="0"
     inkscape:window-y="0"
     inkscape:window-maximized="0" />
  <metadata
     id="metadata3085">
    <rdf:RDF>
      <cc:Work
         rdf:about="">
        <dc:format>image/svg+xml</dc:format>
        <dc:type
           rdf:resource="http://purl.org/dc/dcmitype/StillImage" />
        <dc:title></dc:title>
      </cc:Work>
    </rdf:RDF>
  </metadata>
  <g
     id="layer1"
     inkscape:label="Layer 1"
     inkscape:groupmode="layer">
    <path
       style="fill:#c33320;fill-opacity:1;stroke:#000000;stroke-width:1.04313207px;stroke-linecap:butt;stroke-linejoin:miter;stroke-opacity:1"
       d="m 22.628113,12.521566 6.06124,4.360596 c 0,0 1.526877,2.016188 1.897029,5.767238 0.370152,3.75105 1.573147,10.034057 0.370152,8.627414 -1.202994,-1.406643 -0.832842,-4.313707 -5.089591,-4.876364 -4.256749,-0.562658 -3.23883,-13.878884 -3.23883,-13.878884 z"
       id="path3876-6"
       inkscape:connector-curvature="0"
       sodipodi:nodetypes="ccsssc" />
    <path
       style="fill:#c33320;stroke:#000000;stroke-width:1.04313206999999997px;stroke-linecap:butt;stroke-linejoin:miter;stroke-opacity:1;fill-opacity:1"
       d="m 9.3718872,12.521566 -6.0612403,4.360596 c 0,0 -1.5268773,2.016188 -1.8970294,5.767238 -0.3701519,3.75105 -1.57314625,10.034057 -0.3701519,8.627414 1.2029941,-1.406643 0.8328421,-4.313707 5.089591,-4.876364 4.2567494,-0.562658 3.2388306,-13.878884 3.2388306,-13.878884 z"
       id="path3876"
       inkscape:connector-curvature="0"
       sodipodi:nodetypes="ccsssc" />
    <path
       style="fill:#84848b;fill-opacity:1;stroke:#000000;stroke-width:1.08594739px;stroke-linecap:butt;stroke-linejoin:miter;stroke-opacity:1"
       d="M 16.00723,0.54999502 C 8.9395281,0.12949989 8.4774582,18.736408 8.4774582,18.736408 c 0,0 -5.725733,12.825099 3.5785828,12.719976 9.304316,-0.10512 3.951189,0 3.951189,0"
       id="path3088"
       inkscape:connector-curvature="0"
       sodipodi:nodetypes="ccsc" />
    <path
       style="fill:#84848b;fill-opacity:1;stroke:#000000;stroke-width:1.08594739px;stroke-linecap:butt;stroke-linejoin:miter;stroke-opacity:1"
       d="m 15.75346,0.54999457 c 7.067702,-0.420495 7.529772,18.18641343 7.529772,18.18641343 0,0 5.725733,12.825099 -3.578583,12.719976 -9.304316,-0.10512 -3.951189,0 -3.951189,0"
       id="path3088-3"
       inkscape:connector-curvature="0"
       sodipodi:nodetypes="ccsc" />
    <path
       sodipodi:type="arc"
       style="fill:#3b7eda;fill-opacity:1;fill-rule:nonzero;stroke:#000000;stroke-width:1;stroke-linecap:round;stroke-linejoin:round;stroke-miterlimit:4;stroke-opacity:1;stroke-dasharray:none"
       id="path3878"
       sodipodi:cx="16.610403"
       sodipodi:cy="12.353287"
       sodipodi:rx="2.0539746"
       sodipodi:ry="6.1619234"
       d="m 15.562408,17.652783 a 2.0539746,6.1619234 0 1 1 0.01641,0.02889"
       sodipodi:start="2.1062459"
       sodipodi:end="8.3801699"
       sodipodi:open="true"
       transform="matrix(1.6389291,0,0,0.97841263,-11.294912,-0.28543218)" />
  </g>
</svg>
