<?xml version="1.0" encoding="UTF-8" standalone="no"?>
<!-- Created with Inkscape (http://www.inkscape.org/) -->

<svg
   xmlns:dc="http://purl.org/dc/elements/1.1/"
   xmlns:cc="http://creativecommons.org/ns#"
   xmlns:rdf="http://www.w3.org/1999/02/22-rdf-syntax-ns#"
   xmlns:svg="http://www.w3.org/2000/svg"
   xmlns="http://www.w3.org/2000/svg"
   xmlns:sodipodi="http://sodipodi.sourceforge.net/DTD/sodipodi-0.dtd"
   xmlns:inkscape="http://www.inkscape.org/namespaces/inkscape"
   width="32px"
   height="32px"
   id="svg3080"
   version="1.1"
   inkscape:version="0.48.5 r10040"
   sodipodi:docname="Spaceship.svg"
   inkscape:export-filename="/home/mike/dev/ts/minild-74-jam/assets/img/Spaceship.png"
   inkscape:export-xdpi="90"
   inkscape:export-ydpi="90">
  <defs
     id="defs3082" />
  <sodipodi:namedview
     id="base"
     pagecolor="#ffffff"
     bordercolor="#666666"
     borderopacity="1.0"
     inkscape:pageopacity="0.0"
     inkscape:pageshadow="2"
     inkscape:zoom="15.898854"
     inkscape:cx="21.930935"
     inkscape:cy="12.102281"
     inkscape:current-layer="layer1"
     showgrid="true"
     inkscape:grid-bbox="true"
     inkscape:document-units="px"
     inkscape:window-width="1918"
     inkscape:window-height="1078"
     inkscape:window-x="0"
     inkscape:window-y="0"
     inkscape:window-maximized="0" />
  <metadata
     id="metadata3085">
    <rdf:RDF>
      <cc:Work
         rdf:about="">
        <dc:format>image/svg+xml</dc:format>
        <dc:type
           rdf:resource="http://purl.org/dc/dcmitype/StillImage" />
        <dc:title />
      </cc:Work>
    </rdf:RDF>
  </metadata>
  <g
     id="layer1"
     inkscape:label="Layer 1"
     inkscape:groupmode="layer">
    <path
       style="fill:#c33320;fill-opacity:1;stroke:#000000;stroke-width:1.04313207px;stroke-linecap:butt;stroke-linejoin:miter;stroke-opacity:1"
       d="m 19.478434,22.628113 -4.360596,6.06124 c 0,0 -2.016188,1.526877 -5.767238,1.897029 C 5.59955,30.956534 -0.68345698,32.159529 0.72318602,30.956534 2.129829,29.75354 5.036893,30.123692 5.59955,25.866943 c 0.562658,-4.256749 13.878884,-3.23883 13.878884,-3.23883 z"
       id="path3876-6"
       inkscape:connector-curvature="0"
       sodipodi:nodetypes="ccsssc" />
    <path
       style="fill:#c33320;fill-opacity:1;stroke:#000000;stroke-width:1.04313207px;stroke-linecap:butt;stroke-linejoin:miter;stroke-opacity:1"
       d="M 19.478434,9.3718873 15.117838,3.310647 c 0,0 -2.016188,-1.5268773 -5.767238,-1.8970294 C 5.59955,1.0434657 -0.68345698,-0.15952862 0.72318602,1.0434657 2.129829,2.2464598 5.036893,1.8763078 5.59955,6.1330567 6.162208,10.389806 19.478434,9.3718873 19.478434,9.3718873 z"
       id="path3876"
       inkscape:connector-curvature="0"
       sodipodi:nodetypes="ccsssc" />
    <path
       style="fill:#84848b;fill-opacity:1;stroke:#000000;stroke-width:1.0298878px;stroke-linecap:butt;stroke-linejoin:miter;stroke-opacity:1"
       d="M 31.450711,16.00723 C 31.828913,8.9395282 15.0935,8.4774583 15.0935,8.4774583 c 0,0 -11.5351425,-5.725733 -11.4405929,3.5785827 0.094547,9.304316 0,3.951189 0,3.951189"
       id="path3088"
       inkscape:connector-curvature="0"
       sodipodi:nodetypes="ccsc" />
    <path
       style="fill:#84848b;fill-opacity:1;stroke:#000000;stroke-width:1.0298878px;stroke-linecap:butt;stroke-linejoin:miter;stroke-opacity:1"
       d="m 31.450711,15.75346 c 0.378202,7.067702 -16.357211,7.529772 -16.357211,7.529772 0,0 -11.5351425,5.725733 -11.4405929,-3.578583 0.094547,-9.304316 0,-3.951189 0,-3.951189"
       id="path3088-3"
       inkscape:connector-curvature="0"
       sodipodi:nodetypes="ccsc" />
    <path
       sodipodi:type="arc"
       style="fill:#3b7eda;fill-opacity:1;fill-rule:nonzero;stroke:#000000;stroke-width:1;stroke-linecap:round;stroke-linejoin:round;stroke-miterlimit:4;stroke-opacity:1;stroke-dasharray:none"
       id="path3878"
       sodipodi:cx="16.610403"
       sodipodi:cy="12.353287"
       sodipodi:rx="2.0539746"
       sodipodi:ry="6.1619234"
       d="m 15.562408,17.652783 a 2.0539746,6.1619234 0 1 1 0.01641,0.02889"
       sodipodi:start="2.1062459"
       sodipodi:end="8.3801699"
       sodipodi:open="true"
       transform="matrix(0,1.6389291,-0.97841263,0,32.285432,-11.294912)" />
  </g>
</svg>
