<?xml version="1.0" encoding="UTF-8" standalone="no"?>
<!-- Created with Inkscape (http://www.inkscape.org/) -->

<svg
   xmlns:dc="http://purl.org/dc/elements/1.1/"
   xmlns:cc="http://creativecommons.org/ns#"
   xmlns:rdf="http://www.w3.org/1999/02/22-rdf-syntax-ns#"
   xmlns:svg="http://www.w3.org/2000/svg"
   xmlns="http://www.w3.org/2000/svg"
   xmlns:sodipodi="http://sodipodi.sourceforge.net/DTD/sodipodi-0.dtd"
   xmlns:inkscape="http://www.inkscape.org/namespaces/inkscape"
   width="32px"
   height="32px"
   id="svg3080"
   version="1.1"
   inkscape:version="0.48.5 r10040"
   sodipodi:docname="Spaceship.svg"
   inkscape:export-filename="/home/mike/dev/ts/minild-74-jam/assets/img/Spaceship.png"
   inkscape:export-xdpi="90"
   inkscape:export-ydpi="90">
  <defs
     id="defs3082" />
  <sodipodi:namedview
     id="base"
     pagecolor="#ffffff"
     bordercolor="#666666"
     borderopacity="1.0"
     inkscape:pageopacity="0.0"
     inkscape:pageshadow="2"
     inkscape:zoom="22.484375"
     inkscape:cx="16.979014"
     inkscape:cy="14.817534"
     inkscape:current-layer="layer1"
     showgrid="true"
     inkscape:grid-bbox="true"
     inkscape:document-units="px"
     inkscape:window-width="1918"
     inkscape:window-height="1078"
     inkscape:window-x="0"
     inkscape:window-y="0"
     inkscape:window-maximized="0" />
  <metadata
     id="metadata3085">
    <rdf:RDF>
      <cc:Work
         rdf:about="">
        <dc:format>image/svg+xml</dc:format>
        <dc:type
           rdf:resource="http://purl.org/dc/dcmitype/StillImage" />
        <dc:title></dc:title>
      </cc:Work>
    </rdf:RDF>
  </metadata>
  <g
     id="layer1"
     inkscape:label="Layer 1"
     inkscape:groupmode="layer">
    <path
       style="fill:none;stroke:#000000;stroke-width:0.4;stroke-linecap:round;stroke-linejoin:round;stroke-opacity:1;stroke-miterlimit:4;stroke-dasharray:none"
       d="m 3.1448808,23.949105 c 1.3837475,-0.754771 2.5159046,-2.767495 2.5159046,-3.14488 0,-0.377386 -2.8932903,-2.012724 -2.8932903,-2.012724 0,0 -0.8805666,-1.383748 -0.4402833,-2.453007"
       id="path2995"
       inkscape:connector-curvature="0" />
    <path
       style="fill:none;stroke:#000000;stroke-width:0.40000001;stroke-linecap:round;stroke-linejoin:round;stroke-miterlimit:4;stroke-opacity:1;stroke-dasharray:none"
       d="m 3.6480617,19.231784 c 0,0 0.6918738,-0.628976 0.6289762,-1.383747 -0.062898,-0.754772 -0.5660786,-1.006362 -0.5660786,-1.006362"
       id="path3765"
       inkscape:connector-curvature="0" />
    <path
       style="fill:none;stroke:#000000;stroke-width:0.40000001;stroke-linecap:round;stroke-linejoin:round;stroke-miterlimit:4;stroke-opacity:1;stroke-dasharray:none"
       d="m 4.5420015,20.026607 c 0,0 -0.54231,0.761708 -1.2992082,0.788939 -0.7568981,0.02723 -1.066495,-0.44249 -1.066495,-0.44249"
       id="path3765-3"
       inkscape:connector-curvature="0"
       inkscape:transform-center-y="-0.59503938" />
    <path
       style="fill:none;stroke:#000000;stroke-width:0.40000001;stroke-linecap:round;stroke-linejoin:round;stroke-miterlimit:4;stroke-opacity:1;stroke-dasharray:none"
       d="m 4.7827017,22.576609 c 0,0 0.7565795,-0.103949 1.5125594,-0.150103 1.9422125,-0.118577 2.0332097,-1.057459 2.0332097,-1.057459"
       id="path3765-6"
       inkscape:connector-curvature="0"
       sodipodi:nodetypes="csc" />
    <path
       style="fill:none;stroke:#000000;stroke-width:0.40000001;stroke-linecap:round;stroke-linejoin:round;stroke-miterlimit:4;stroke-opacity:1;stroke-dasharray:none"
       d="m 7.4848162,22.187972 c 0,0 -1.1950547,-1.195055 -0.6289762,-2.39011 0.5660786,-1.195054 0.503181,-1.446645 0.503181,-1.446645"
       id="path3792"
       inkscape:connector-curvature="0" />
    <path
       style="fill:none;stroke:#000000;stroke-width:0.40000001;stroke-linecap:round;stroke-linejoin:round;stroke-miterlimit:4;stroke-opacity:1;stroke-dasharray:none"
       d="m 7.0894225,20.427064 c 0,0 0.9348512,-0.0188 1.3838514,-0.628747 C 8.9222745,19.18837 8.708681,18.667922 8.708681,18.667922"
       id="path3765-7"
       inkscape:connector-curvature="0" />
    <path
       style="fill:none;stroke:#000000;stroke-width:0.21802188;stroke-linecap:round;stroke-linejoin:round;stroke-miterlimit:4;stroke-opacity:1;stroke-dasharray:none"
       d="m 25.420012,15.125245 c -0.757279,-0.405729 -2.013129,-0.321203 -2.185231,-0.208546 -0.172102,0.11266 -0.13339,2.144171 -0.13339,2.144171 0,0 0.838698,0.536301 0.21964,0.654706"
       id="path2995-5"
       inkscape:connector-curvature="0"
       sodipodi:nodetypes="cccc" />
    <path
       style="fill:none;stroke:#000000;stroke-width:0.21802188;stroke-linecap:round;stroke-linejoin:round;stroke-miterlimit:4;stroke-opacity:1;stroke-dasharray:none"
       d="m 23.02957,16.303982 c 0,0 -0.493374,-0.127757 -0.818803,0.126237 -0.325428,0.254 -0.289955,0.558572 -0.289955,0.558572"
       id="path3765-35"
       inkscape:connector-curvature="0" />
    <path
       style="fill:none;stroke:#000000;stroke-width:0.21802188;stroke-linecap:round;stroke-linejoin:round;stroke-miterlimit:4;stroke-opacity:1;stroke-dasharray:none"
       d="m 23.214134,15.703517 c 0,0 0.664902,0.233329 0.970133,0.511271 0.499109,0.454484 0.152056,0.731772 0.152056,0.731772"
       id="path3765-3-6"
       inkscape:connector-curvature="0"
       inkscape:transform-center-y="0.26059919"
       inkscape:transform-center-x="0.33153013"
       sodipodi:nodetypes="csc" />
    <path
       style="fill:none;stroke:#000000;stroke-width:0.21802188;stroke-linecap:round;stroke-linejoin:round;stroke-miterlimit:4;stroke-opacity:1;stroke-dasharray:none"
       d="m 24.305181,14.78805 c 0,0 -0.273259,-0.313997 -0.51998,-0.644976 -0.633862,-0.850327 -1.089194,-0.611553 -1.089194,-0.611553"
       id="path3765-6-2"
       inkscape:connector-curvature="0"
       sodipodi:nodetypes="csc" />
    <path
       style="fill:none;stroke:#000000;stroke-width:0.21802188;stroke-linecap:round;stroke-linejoin:round;stroke-miterlimit:4;stroke-opacity:1;stroke-dasharray:none"
       d="m 23.099869,14.913183 c 0,0 -0.189188,-0.298937 -0.79572,0.274419 -0.451654,0.426952 -0.351376,0.419839 -0.351376,0.419839"
       id="path3765-6-2-2"
       inkscape:connector-curvature="0"
       sodipodi:nodetypes="csc" />
    <path
       style="fill:none;stroke:#000000;stroke-width:0.14596993;stroke-linecap:round;stroke-linejoin:round;stroke-miterlimit:4;stroke-opacity:1;stroke-dasharray:none"
       d="m 24.829312,14.995265 c 0,0 0.182121,0.424392 0.177201,0.692494 -0.008,0.438396 -0.309908,0.38807 -0.309908,0.38807"
       id="path3765-3-6-7"
       inkscape:connector-curvature="0"
       inkscape:transform-center-y="-0.077675887"
       inkscape:transform-center-x="0.2242536"
       sodipodi:nodetypes="csc" />
    <path
       style="fill:none;stroke:#000000;stroke-width:0.22993374;stroke-linecap:round;stroke-linejoin:round;stroke-miterlimit:4;stroke-opacity:1;stroke-dasharray:none"
       d="m 12.295664,2.1975895 c -0.844492,0.3282957 -1.638275,1.3922807 -1.666089,1.6074238 -0.02782,0.2151437 1.501082,1.3606872 1.501082,1.3606872 0,0 0.400011,0.8537638 0.07019,1.4308851"
       id="path2995-2"
       inkscape:connector-curvature="0" />
    <path
       style="fill:none;stroke:#000000;stroke-width:0.22993374;stroke-linecap:round;stroke-linejoin:round;stroke-miterlimit:4;stroke-opacity:1;stroke-dasharray:none"
       d="m 11.661107,4.8497962 c 0,0 -0.440788,0.3075769 -0.460563,0.7424997 -0.01978,0.4349236 0.24854,0.6154401 0.24854,0.6154401"
       id="path3765-61"
       inkscape:connector-curvature="0" />
    <path
       style="fill:none;stroke:#000000;stroke-width:0.22993374;stroke-linecap:round;stroke-linejoin:round;stroke-miterlimit:4;stroke-opacity:1;stroke-dasharray:none"
       d="m 11.210065,4.3307868 c 0,0 0.365309,-0.3942698 0.798815,-0.3540055 0.433507,0.040264 0.575384,0.3308668 0.575384,0.3308668"
       id="path3765-3-8"
       inkscape:connector-curvature="0"
       inkscape:transform-center-y="0.29880319"
       inkscape:transform-center-x="0.060207743" />
    <path
       style="fill:none;stroke:#000000;stroke-width:0.22993374;stroke-linecap:round;stroke-linejoin:round;stroke-miterlimit:4;stroke-opacity:1;stroke-dasharray:none"
       d="m 11.260796,2.8593165 c 0,0 -0.438979,0.0035 -0.873356,-0.025913 C 9.2714651,2.7578485 9.1503862,3.286388 9.1503862,3.286388"
       id="path3765-6-7"
       inkscape:connector-curvature="0"
       sodipodi:nodetypes="csc" />
    <path
       style="fill:none;stroke:#000000;stroke-width:0.22993374;stroke-linecap:round;stroke-linejoin:round;stroke-miterlimit:4;stroke-opacity:1;stroke-dasharray:none"
       d="m 9.6917047,2.8817105 c 0,0 0.5932063,0.7693717 0.182406,1.408936 C 9.4633119,4.9302103 9.4806258,5.0782756 9.4806258,5.0782756"
       id="path3792-9"
       inkscape:connector-curvature="0" />
    <path
       style="fill:none;stroke:#000000;stroke-width:0.22993374;stroke-linecap:round;stroke-linejoin:round;stroke-miterlimit:4;stroke-opacity:1;stroke-dasharray:none"
       d="m 9.7873237,3.9147287 c 0,0 -0.5343341,-0.058188 -0.8352614,0.2564428 -0.3009273,0.31463 -0.2175206,0.6270751 -0.2175206,0.6270751"
       id="path3765-7-2"
       inkscape:connector-curvature="0" />
    <path
       style="fill:none;stroke:#000000;stroke-width:0.17347628;stroke-linecap:round;stroke-linejoin:round;stroke-miterlimit:4;stroke-opacity:1;stroke-dasharray:none"
       d="m 15.298309,3.98886 c -0.659137,-0.181188 -1.618607,0.105966 -1.732262,0.2237381 -0.113653,0.1177715 0.296763,1.4994636 0.296763,1.4994636 0,0 -0.141931,0.697023 -0.601351,0.898114"
       id="path2995-0"
       inkscape:connector-curvature="0" />
    <path
       style="fill:none;stroke:#000000;stroke-width:0.17347628;stroke-linecap:round;stroke-linejoin:round;stroke-miterlimit:4;stroke-opacity:1;stroke-dasharray:none"
       d="m 13.676131,5.2649934 c 0,0 -0.405339,-0.01208 -0.613019,0.242406 -0.207681,0.254484 -0.126419,0.48454 -0.126419,0.48454"
       id="path3765-2"
       inkscape:connector-curvature="0" />
    <path
       style="fill:none;stroke:#000000;stroke-width:0.17347628;stroke-linecap:round;stroke-linejoin:round;stroke-miterlimit:4;stroke-opacity:1;stroke-dasharray:none"
       d="m 13.681,4.7922057 c 0,0 0.398638,-0.07439 0.643047,0.145066 0.244409,0.21945 0.199563,0.459276 0.199563,0.459276"
       id="path3765-3-3"
       inkscape:connector-curvature="0"
       inkscape:transform-center-y="0.24884626"
       inkscape:transform-center-x="0.24438923" />
    <path
       style="fill:none;stroke:#000000;stroke-width:0.17347628;stroke-linecap:round;stroke-linejoin:round;stroke-miterlimit:4;stroke-opacity:1;stroke-dasharray:none"
       d="m 14.373847,3.9239305 c 0,0 -0.267416,-0.1954114 -0.517235,-0.4086803 C 13.214786,2.967338 12.903637,3.2329297 12.903637,3.2329297"
       id="path3765-6-75"
       inkscape:connector-curvature="0"
       sodipodi:nodetypes="csc" />
  </g>
</svg>
